<?xml version="1.0" encoding="utf-8"?>
<!-- Generator: Adobe Illustrator 17.0.0, SVG Export Plug-In . SVG Version: 6.00 Build 0)  -->
<!DOCTYPE svg PUBLIC "-//W3C//DTD SVG 1.1//EN" "http://www.w3.org/Graphics/SVG/1.1/DTD/svg11.dtd">
<svg version="1.1" id="Layer_1" xmlns="http://www.w3.org/2000/svg" xmlns:xlink="http://www.w3.org/1999/xlink" x="0px" y="0px"
	 width="600px" height="138.596px" viewBox="0 0 600 138.596" enable-background="new 0 0 600 138.596" xml:space="preserve">
<path fill="#FFFFFF" d="M39.98,28.616c-13.096,0-22.869,3.456-29.312,10.364C4.223,45.89,1,56.615,1,71.153
	c0,14.54,3.223,25.266,9.668,32.173c6.443,6.912,16.216,10.368,29.312,10.368c10.828,0,19.541-2.554,26.142-7.658
	c6.598-5.104,9.899-12.762,9.899-22.972H55.138c0,4.541-1.366,8.045-4.099,10.519c-2.733,2.474-6.317,3.715-10.75,3.715
	c-6.29,0-10.775-1.728-13.456-5.184c-2.685-3.454-4.127-8.791-4.333-16.01h53.52v-4.951c0-14.435-2.991-25.135-8.972-32.095
	C61.068,32.095,52.046,28.616,39.98,28.616z M22.81,62.028c0.62-5.669,2.296-9.899,5.028-12.684
	c2.73-2.783,6.779-4.177,12.142-4.177c9.384,0,14.076,5.623,14.076,16.861H22.81z M135.421,28.616c-5.26,0-10.055,1.057-14.387,3.17
	c-4.33,2.115-7.786,5.237-10.364,9.359h-1.083l-1.392-10.672h-18.1v108.123h21.192v-36.194h0.929
	c2.371,3.612,5.646,6.395,9.823,8.349c4.175,1.959,8.995,2.943,14.463,2.943c9.485,0,17.092-3.561,22.814-10.675
	c5.724-7.116,8.585-17.685,8.585-31.711c0-14.332-2.838-25.032-8.507-32.098C153.724,32.15,145.73,28.616,135.421,28.616z
	 M146.094,72.547c0,7.633-1.341,13.33-4.021,17.092c-2.682,3.765-7.168,5.646-13.458,5.646c-11.551,0-17.326-7.681-17.326-23.05
	v-2.474c0-15.158,5.775-22.739,17.326-22.739c6.29,0,10.775,1.884,13.458,5.646c2.68,3.765,4.021,9.462,4.021,17.092V72.547z
	 M182.286,0h21.192v19.18h-21.192V0z M182.286,30.473h21.192v81.363h-21.192V30.473z M244.625,30.473h14.076v17.324h-14.076v41.919
	c0,4.436,2.218,6.653,6.651,6.653h7.425v14.849c-1.753,0.618-3.944,1.186-6.573,1.703c-2.63,0.513-5.081,0.774-7.347,0.774
	c-7.633,0-13.099-2.064-16.397-6.189c-3.303-4.124-4.951-9.334-4.951-15.623V47.796h-9.746V30.473h10.21l3.557-22.894h17.17V30.473z
	 M308.353,28.616c-13.92,0-24.286,3.456-31.09,10.364c-6.807,6.91-10.21,17.635-10.21,32.173c0,14.54,3.403,25.266,10.21,32.173
	"/>
</svg>
